<?xml version="1.0" encoding="utf-8"?>
<!-- Generator: Adobe Illustrator 16.0.3, SVG Export Plug-In . SVG Version: 6.00 Build 0)  -->
<!DOCTYPE svg PUBLIC "-//W3C//DTD SVG 1.1//EN" "http://www.w3.org/Graphics/SVG/1.1/DTD/svg11.dtd">
<svg version="1.1" id="Layer_1" xmlns="http://www.w3.org/2000/svg" xmlns:xlink="http://www.w3.org/1999/xlink" x="0px" y="0px"
	 width="512px" height="512px" viewBox="0 0 512 512" enable-background="new 0 0 512 512" xml:space="preserve">
<circle fill="#1A1A1A" cx="-1872" cy="255.667" r="232.982"/>
<circle fill="#1A1A1A" cx="-1340" cy="257.667" r="232.982"/>
<circle fill="#1A1A1A" cx="-808" cy="255.667" r="232.982"/>
<circle fill="#1A1A1A" cx="-276" cy="255.667" r="232.982"/>
<circle fill="#1A1A1A" cx="256" cy="255.667" r="232.982"/>
<circle fill="#1A1A1A" cx="788" cy="255.667" r="232.982"/>
<circle fill="#1A1A1A" cx="1320" cy="255.667" r="232.982"/>
<g>
	<path fill-rule="evenodd" clip-rule="evenodd" fill="#F2F2F2" d="M708.788,352.149c-3.185,8.237-5.92,15.768-9.015,23.146
		c-1.776,4.234-6.026,5.394-10.941,3.488c-4.15-1.609-6.865-4.361-5.227-9.031c2.709-7.721,5.839-15.294,9.008-23.487
		C698.067,348.249,703.069,350.068,708.788,352.149z"/>
	<g>
		<path fill-rule="evenodd" clip-rule="evenodd" fill="#F2F2F2" d="M877.539,383.037c-1.333-2.18-3.025-4.219-3.944-6.562
			c-12.283-31.365-24.542-62.739-36.558-94.207c-1.516-3.975-3.348-5.39-7.627-5.282c-12.311,0.31-24.634,0.108-37.569,0.108
			c0,5.044,0,9.452,0,15.385c-4.742-0.968-10.275-0.516-12.066-2.889c-1.954-2.589-0.444-7.795-0.444-12.451
			c-13.784,0-26.666-0.117-39.54,0.185c-1.271,0.03-2.992,2.438-3.641,4.083c-6.66,16.889-13.138,33.85-19.681,50.786
			c-0.726,1.876-1.549,3.716-2.534,6.07c-5.443-1.998-10.445-3.836-15.985-5.871c7.052-18.405,13.918-36.325,21.4-55.854
			c-6.066,0.74-11.005,1.481-15.969,1.91c-4.263,0.367-8.706,1.081-12.76,0.206c-1.607-0.348-2.981-4.474-3.37-7.045
			c-0.415-2.73,0.291-6.118,4.218-5.896c4.542,0.256,9.032,1.406,13.576,1.711c5.403,0.361,10.846,0.39,16.256,0.178
			c0.937-0.037,2.162-1.846,2.638-3.075c12.386-31.933,24.731-63.88,36.898-95.896c0.677-1.782,0.237-4.357-0.499-6.244
			c-4.531-11.63-1.288-24.273,8.41-31.818c9.894-7.697,23.981-7.914,34.023-0.525c10.213,7.516,13.675,20.019,9.304,32.041
			c-0.856,2.357-0.937,5.578-0.056,7.898c11.892,31.315,24.063,62.524,36.007,93.819c1.217,3.186,2.888,4.415,6.168,4.063
			c7.683-0.823,15.384-1.478,23.068-2.287c5.169-0.544,6.932,1.758,6.956,6.823c0.023,5.171-1.976,7.313-7.027,6.729
			c-5.849-0.674-11.69-1.406-17.547-2.008c-1.807-0.185-3.649-0.029-6.264-0.029c2.303,6.106,4.29,11.498,6.362,16.856
			c5.334,13.785,10.196,27.784,16.212,41.268c5.47,12.254,4.479,24.857,4.236,37.54c-0.061,3.157-0.533,6.306-0.814,9.457
			C878.764,382.489,878.15,382.764,877.539,383.037z M831.254,267.599c-11.537-29.656-22.676-58.412-34.047-87.076
			c-0.456-1.149-3.069-1.931-4.723-2.017c-3.692-0.19-7.563,0.871-11.085,0.12c-4.18-0.892-5.946,0.063-7.447,4.04
			c-10.107,26.771-20.459,53.449-30.708,80.166c-0.56,1.464-0.904,3.011-1.36,4.556c12.658,0,24.733,0,37.41,0
			c0-4.486,0-8.523,0-12.764c4.425,0,8.233,0,12.285,0c0.202,4.563,0.39,8.751,0.578,12.975
			C805.306,267.599,817.814,267.599,831.254,267.599z M785.923,166.773c8.929,0.069,15.53-6.218,15.571-14.832
			c0.04-8.447-6.828-15.16-15.454-15.103c-8.367,0.056-15.281,6.655-15.414,14.714C770.485,160.11,777.113,166.706,785.923,166.773z
			"/>
		<path fill-rule="evenodd" clip-rule="evenodd" fill="#F2F2F2" d="M795.169,121.616c-6.775,0-11.582,0-17.83,0
			c0.843-5.17,0.42-10.735,2.87-14.357c1.333-1.969,9.806-2.247,11.09-0.451C793.948,110.511,793.936,116.117,795.169,121.616z"/>
	</g>
	<path fill-rule="evenodd" clip-rule="evenodd" fill="#F2F2F2" d="M693.94,343.278c1.002-2.808,1.792-5.023,2.779-7.79
		c5.493,1.966,10.519,3.765,16.046,5.742c-0.923,2.635-1.694,4.841-2.746,7.844C704.559,347.105,699.428,345.256,693.94,343.278z"/>
</g>
<g opacity="0.5" enable-background="new    ">
	<g>
		<defs>
			<rect id="SVGID_1_" x="1338.435" y="170.992" width="129.07" height="138.281"/>
		</defs>
		<clipPath id="SVGID_2_">
			<use xlink:href="#SVGID_1_"  overflow="visible"/>
		</clipPath>
		<g clip-path="url(#SVGID_2_)">
			<defs>
				<rect id="SVGID_3_" x="1338.435" y="177.616" width="129.07" height="131.657"/>
			</defs>
			<clipPath id="SVGID_4_">
				<use xlink:href="#SVGID_3_"  overflow="visible"/>
			</clipPath>
			<path clip-path="url(#SVGID_4_)" fill="#F2F2F2" d="M1418.618,239.206v9.715c1.772,0.763,3.792,1.654,6.07,2.655
				c2.259,0.99,4.583,2.015,6.995,3.068c2.42,1.053,4.85,2.101,7.318,3.164c2.458,1.043,4.793,2.024,7.014,2.939
				c2.201,0.91,4.203,1.72,5.965,2.449c1.783,0.719,3.212,1.271,4.316,1.648c2.326,0.839,4.203,2.097,5.662,3.788
				c1.42,1.687,2.563,3.407,3.393,5.189c0.99,2.044,1.715,4.202,2.162,17.015v18.436h-129.068v-28.98
				c0.495-2.268,1.238-4.426,2.22-6.47c0.838-1.782,1.964-3.503,3.421-5.189c1.439-1.691,3.278-2.949,5.557-3.788
				c1.162-0.377,2.687-0.943,4.564-1.701c1.887-0.738,3.982-1.601,6.309-2.568c2.315-0.962,4.764-2.006,7.356-3.12
				c2.563-1.101,5.128-2.197,7.653-3.308c2.563-1.115,4.974-2.158,7.232-3.149c2.277-1.011,4.278-1.892,5.965-2.665v-9.462
				c-0.085-0.443-0.276-1.115-0.514-2.034c-0.258-0.92-0.515-1.834-0.801-2.783c-0.324-1.096-0.715-2.296-1.163-3.563
				c-1.61-2.998-2.878-6.375-3.821-10.164c-0.934-3.793-1.4-7.824-1.4-12.083c0-5.59,0.59-10.335,1.781-14.19
				c1.183-3.878,2.803-7.028,4.86-9.458c2.03-2.439,4.432-4.207,7.167-5.313c2.754-1.115,5.689-1.667,8.843-1.667
				c3.107,0,6.014,0.543,8.768,1.619c2.735,1.083,5.136,2.821,7.205,5.223c2.087,2.416,3.716,5.575,4.907,9.473
				c1.191,3.888,1.782,8.677,1.782,14.313c0,4.159-0.467,8.095-1.373,11.831c-0.914,3.736-2.172,7.095-3.773,10.093
				c-0.438,1.367-0.858,2.672-1.238,3.887c-0.334,1.063-0.64,2.073-0.925,3.026C1418.76,238.063,1418.618,238.772,1418.618,239.206"
				/>
		</g>
	</g>
</g>
<g opacity="0.5" enable-background="new    ">
	<g>
		<defs>
			<rect id="SVGID_5_" x="1172.495" y="170.992" width="129.069" height="138.281"/>
		</defs>
		<clipPath id="SVGID_6_">
			<use xlink:href="#SVGID_5_"  overflow="visible"/>
		</clipPath>
		<g clip-path="url(#SVGID_6_)">
			<defs>
				<rect id="SVGID_7_" x="1172.495" y="177.616" width="129.069" height="131.657"/>
			</defs>
			<clipPath id="SVGID_8_">
				<use xlink:href="#SVGID_7_"  overflow="visible"/>
			</clipPath>
			<path clip-path="url(#SVGID_8_)" fill="#F2F2F2" d="M1252.678,239.206v9.715c1.772,0.763,3.793,1.654,6.07,2.655
				c2.258,0.99,4.584,2.015,7.004,3.068c2.411,1.053,4.841,2.101,7.31,3.164c2.458,1.043,4.794,2.024,7.014,2.939
				c2.201,0.91,4.203,1.72,5.966,2.449c1.782,0.719,3.211,1.271,4.316,1.648c2.326,0.839,4.203,2.097,5.661,3.788
				c1.419,1.687,2.563,3.407,3.392,5.189c0.992,2.044,1.716,4.202,2.164,17.015v18.436h-129.07v-28.98
				c0.496-2.268,1.239-4.426,2.221-6.47c0.839-1.782,1.963-3.503,3.422-5.189c1.438-1.691,3.277-2.949,5.556-3.788
				c1.163-0.377,2.687-0.943,4.564-1.701c1.887-0.738,3.983-1.601,6.308-2.568c2.316-0.962,4.766-2.006,7.357-3.12
				c2.564-1.101,5.127-2.197,7.652-3.308c2.564-1.115,4.975-2.158,7.234-3.149c2.277-1.011,4.277-1.892,5.965-2.665v-9.462
				c-0.086-0.443-0.276-1.115-0.515-2.034c-0.257-0.92-0.515-1.834-0.8-2.783c-0.324-1.096-0.715-2.296-1.164-3.563
				c-1.61-2.998-2.877-6.375-3.821-10.164c-0.934-3.793-1.401-7.824-1.401-12.083c0-5.59,0.592-10.335,1.783-14.19
				c1.182-3.878,2.802-7.028,4.859-9.458c2.031-2.439,4.432-4.207,7.166-5.313c2.754-1.115,5.69-1.667,8.845-1.667
				c3.106,0,6.014,0.543,8.768,1.619c2.733,1.083,5.136,2.821,7.204,5.223c2.087,2.416,3.717,5.575,4.908,9.473
				c1.19,3.888,1.781,8.677,1.781,14.313c0,4.159-0.467,8.095-1.372,11.831c-0.915,3.736-2.173,7.095-3.774,10.093
				c-0.438,1.367-0.857,2.672-1.238,3.887c-0.334,1.063-0.639,2.073-0.925,3.026C1252.82,238.063,1252.678,238.772,1252.678,239.206
				"/>
		</g>
	</g>
</g>
<path fill="#F2F2F2" d="M1346.83,248.426v16.644c3.031,1.324,6.5,2.844,10.378,4.555c3.889,1.701,7.892,3.459,12.019,5.27
	c4.135,1.807,8.309,3.592,12.521,5.408c4.221,1.801,8.242,3.479,12.035,5.061c3.783,1.549,7.205,2.944,10.235,4.188
	c3.049,1.239,5.499,2.179,7.396,2.836c3.982,1.43,7.223,3.584,9.69,6.49c2.46,2.892,4.394,5.826,5.833,8.885
	c1.695,3.514,2.936,7.211,3.688,11.104v18.068h-221.25v-18.068c0.857-3.893,2.135-7.59,3.831-11.104
	c1.42-3.059,3.374-5.993,5.832-8.885c2.478-2.906,5.651-5.061,9.538-6.49c1.993-0.657,4.604-1.621,7.824-2.916
	c3.24-1.282,6.843-2.76,10.816-4.402c3.983-1.658,8.187-3.441,12.607-5.342c4.402-1.896,8.787-3.789,13.143-5.689
	c4.363-1.905,8.49-3.693,12.379-5.403c3.897-1.716,7.309-3.23,10.254-4.556v-16.219c-0.191-0.758-0.506-1.93-0.916-3.493
	c-0.438-1.567-0.885-3.154-1.361-4.773c-0.563-1.883-1.23-3.926-1.992-6.114c-2.755-5.122-4.927-10.921-6.547-17.42
	c-1.61-6.499-2.421-13.403-2.421-20.703c0-9.591,1.02-17.701,3.06-24.338c2.039-6.642,4.813-12.045,8.338-16.21
	c3.498-4.179,7.604-7.223,12.303-9.115c4.689-1.906,9.739-2.844,15.143-2.844c5.318,0,10.32,0.919,15.02,2.772
	c4.697,1.859,8.824,4.836,12.369,8.958c3.564,4.136,6.356,9.535,8.405,16.233c2.049,6.671,3.06,14.871,3.06,24.543
	c0,7.119-0.791,13.861-2.354,20.275c-1.572,6.409-3.727,12.16-6.46,17.301c-0.764,2.349-1.479,4.583-2.137,6.662
	c-0.57,1.82-1.105,3.549-1.572,5.188C1347.059,246.463,1346.83,247.678,1346.83,248.426"/>
<path fill="#FFFFFF" d="M-1739.179,232.235h-13.146c-6.037,0-12.442-4.721-14.238-10.479l-7.554-18.367
	c-2.841-5.313-1.671-13.152,2.563-17.42l9.364-9.323c4.269-4.282,4.269-11.272,0-15.533l-15.547-15.506
	c-4.261-4.268-11.23-4.268-15.499,0l-9.365,9.33c-4.24,4.261-12.1,5.423-17.427,2.569l-18.333-7.547
	c-5.744-1.782-10.471-8.188-10.471-14.231v-13.159c0-6.022-4.95-10.979-10.987-10.979h-21.938c-6.037,0-10.98,4.958-10.98,10.979
	v13.159c0,6.044-4.7,12.449-10.465,14.231l-18.353,7.547c-5.339,2.854-13.145,1.706-17.42-2.569l-9.365-9.33
	c-4.268-4.268-11.231-4.268-15.485,0l-15.512,15.506c-4.282,4.261-4.282,11.251,0,15.52l9.302,9.336
	c4.282,4.269,5.452,12.108,2.577,17.42l-7.54,18.381c-1.811,5.757-8.181,10.471-14.225,10.471l-13.173-0.006
	c-6.029,0-10.973,4.929-10.973,10.965v21.932c0,6.042,4.944,10.98,10.973,10.98h13.173c6.044,0.014,12.414,4.734,14.197,10.479
	l7.568,18.365c2.868,5.326,1.706,13.196-2.577,17.437l-9.329,9.321c-4.255,4.283-4.255,11.259,0,15.533l15.54,15.52
	c4.254,4.262,11.217,4.262,15.485,0l9.365-9.344c4.248-4.247,12.081-5.416,17.371-2.541l18.402,7.555
	c5.765,1.803,10.465,8.187,10.465,14.223v13.134c0,6.022,4.944,10.965,10.98,10.965h21.938c6.037,0,10.987-4.942,10.987-10.965
	V372.66c0-6.036,4.728-12.42,10.471-14.223l18.389-7.555c5.305-2.875,13.159-1.706,17.427,2.541l9.309,9.344
	c4.269,4.262,11.238,4.262,15.499,0l15.547-15.52c4.269-4.274,4.269-11.25,0-15.533l-9.364-9.321
	c-4.234-4.24-5.403-12.11-2.563-17.437l7.554-18.365c1.796-5.744,8.236-10.465,14.238-10.465h13.146
	c6.044,0,10.967-4.93,10.967-10.974v-21.953C-1728.212,237.165-1733.135,232.235-1739.179,232.235 M-1815.913,254.16
	c0,30.293-24.55,54.829-54.837,54.829c-30.314,0-54.856-24.536-54.856-54.829c0-30.287,24.542-54.837,54.856-54.837
	C-1840.463,199.323-1815.913,223.873-1815.913,254.16"/>
<path fill="#FFFFFF" d="M-1256.385,342.636c0,22.761-18.442,41.201-41.202,41.201c-22.772,0-41.215-18.44-41.215-41.201
	c0-22.773,18.442-41.215,41.215-41.215C-1274.828,301.421-1256.385,319.862-1256.385,342.636"/>
<path fill="#FFFFFF" d="M-1229.238,161.39c0,22.771-18.442,41.213-41.214,41.213c-22.761,0-41.202-18.441-41.202-41.213
	c0-22.761,18.441-41.202,41.202-41.202C-1247.68,120.188-1229.238,138.629-1229.238,161.39"/>
<path fill="#FFFFFF" d="M-1403.483,270.075c0,22.761-18.442,41.203-41.203,41.203s-41.203-18.442-41.203-41.203
	s18.442-41.201,41.203-41.201S-1403.483,247.314-1403.483,270.075"/>
<line fill="none" stroke="#FFFFFF" stroke-width="10" x1="-1444.561" y1="268.75" x2="-1270.452" y2="161.39"/>
<line fill="none" stroke="#FFFFFF" stroke-width="10" x1="-1293.893" y1="343.822" x2="-1444.686" y2="271.803"/>
<g>
	<path fill="#FFFFFF" d="M-751.146,385.831h-109.236v-18.508h5.834c7.776,0,13.444-1.071,16.999-3.219
		c3.552-2.144,5.733-5.161,6.538-9.053c0.805-3.888,1.207-9.587,1.207-17.1v-59.748c0-8.313-0.503-14.214-1.509-17.703
		c-1.006-3.485-3.621-6.035-7.846-7.645s-11.3-2.48-21.224-2.615v-18.508l82.48-17.301v123.52c0,11.266,1.408,18.979,4.225,23.135
		c2.816,4.159,10.326,6.236,22.531,6.236V385.831z M-773.878,135.774c0,8.047-2.851,14.921-8.55,20.62
		c-5.702,5.702-12.573,8.55-20.62,8.55c-7.915,0-14.786-2.917-20.62-8.751s-8.751-12.639-8.751-20.419
		c0-8.047,2.882-14.953,8.65-20.721c5.765-5.765,12.674-8.65,20.721-8.65c8.179,0,15.088,2.816,20.721,8.449
		S-773.878,127.46-773.878,135.774z"/>
</g>
<g>
	<path fill="#FFFFFF" d="M-361.662,208.579c0.236-12.96,2.458-24.84,6.66-35.64c4.196-10.8,10.08-20.16,17.641-28.08
		c7.56-7.92,16.678-14.096,27.359-18.54c10.677-4.438,22.618-6.66,35.82-6.66c17.038,0,31.258,2.34,42.66,7.02
		c11.396,4.68,20.576,10.502,27.54,17.46c6.958,6.964,11.937,14.462,14.939,22.5c2.998,8.044,4.5,15.542,4.5,22.5
		c0,8.64-0.844,16.144-2.52,22.5c-1.682,6.362-3.96,11.88-6.84,16.56c-2.88,4.68-6.12,8.764-9.721,12.24
		c-3.6,3.482-7.323,6.66-11.159,9.54c-3.842,2.88-7.685,5.704-11.521,8.46c-3.842,2.762-7.38,5.76-10.62,9
		c-3.24,3.239-6.063,6.84-8.46,10.799c-2.401,3.961-3.96,8.584-4.68,13.86v13.681h-48.601v-16.201
		c0.479-7.92,1.738-14.76,3.78-20.52c2.036-5.76,4.5-10.855,7.38-15.3c2.88-4.438,6.059-8.28,9.54-11.52
		c3.477-3.24,7.021-6.3,10.62-9.18c3.601-2.88,6.958-5.58,10.08-8.1c3.116-2.52,5.878-5.276,8.28-8.28
		c2.396-2.998,4.319-6.3,5.76-9.9s2.16-7.796,2.16-12.6c0-11.036-2.7-19.198-8.101-24.48c-5.399-5.276-12.903-7.92-22.5-7.92
		c-6.479,0-12.06,1.26-16.739,3.78c-4.681,2.52-8.522,5.883-11.521,10.08c-3.004,4.202-5.22,9.124-6.66,14.76
		c-1.439,5.642-2.159,11.7-2.159,18.18H-361.662z M-303.701,327.379h56.52v55.439h-56.52V327.379z"/>
</g>
<path fill="#FFFFFF" d="M301.502,267.499c5.011-1.39,11.38-3.303,19.427-5.89c65.179-20.897,57.039-101.914,57.039-101.914h-34.234
	h-16.392v-10.189H184.661v10.189h-16.385h-34.235c0,0-8.227,81.31,57.052,101.914c7.99,2.53,14.329,4.419,19.34,5.79
	c9.891,12.022,22.051,20.567,35.388,23.509v72.951c-34.571,2.132-61.146,14.853-61.146,30.24h142.674
	c0-15.388-26.588-28.108-61.146-30.24v-72.951C279.501,287.967,291.642,279.484,301.502,267.499 M327.342,193.395v-23.509h16.392
	h24.425c-0.144,20.243-5.416,67.642-50.34,82.032c-2.567,0.816-4.849,1.533-7.018,2.206c10.32-17.638,16.547-39.352,16.547-60.729
	H327.342z M194.159,251.893c-44.974-14.21-50.196-61.764-50.302-82.007h24.419h16.385v23.509c0,21.378,6.208,43.073,16.522,60.692
	C199.015,253.407,196.721,252.69,194.159,251.893 M256.011,239.696l-31.499,21.913l11.119-36.703l-30.577-23.21l38.354-0.779
	l12.603-36.223l12.603,36.223l38.354,0.779l-30.577,23.21l11.113,36.703L256.011,239.696z"/>
<g>
</g>
<g>
</g>
<g>
</g>
<g>
</g>
<g>
</g>
<g>
</g>
<g>
</g>
<g>
</g>
<g>
</g>
<g>
</g>
<g>
</g>
<g>
</g>
<g>
</g>
<g>
</g>
<g>
</g>
</svg>
